<svg id="Layer_1" data-name="Layer 1" xmlns="http://www.w3.org/2000/svg" xmlns:xlink="http://www.w3.org/1999/xlink" viewBox="0 0 512 512"><defs><style>.cls-1,.cls-2{fill:#009444;}.cls-1,.cls-4,.cls-6{stroke:#231f20;stroke-miterlimit:10;stroke-width:3px;}.cls-3{clip-path:url(#clip-path);}.cls-4{fill:#fff;}.cls-5{fill:#231f20;}.cls-6{fill:none;}</style><clipPath id="clip-path"><circle class="cls-1" cx="256" cy="256" r="211.66"/></clipPath></defs><title>Paper</title><circle class="cls-2" cx="256" cy="256" r="211.66"/><g class="cls-3"><path class="cls-4" d="M444.72,463,339.52,336.52s-9.32-23.28,1.88-64.33c7.69-27.2-7.16-50.23-7.16-50.23l-25.13-73.37s-5.22-23.42-1.68-30.63-19.22-14.42-25.72,7-7.26,47.68-3.43,61.18c0,0,4.64,37.32,11.38,42.06,0,0-5.38,20.87-11,22.33,0,0,9.58-8.32,5.33-10.92S272.9,233,271.41,232s-23.75-39.38-23.75-39.38-24.49-35.45-30.51-38.15-44.72-38.56-44.72-38.56S149.06,103.66,155.94,132l42.66,48.8s13.78,25.13,18.11,26.5c2.58,2.69-.06,6.08-.06,6.08l-24.5-24.93s-6-6.54-11.24-9.08-28.36-18-28.36-18-5.66-7-9.77-8-11.49-6.23-11.49-6.23-22.13-8.26-14.22,17c23.42,20.13,23.1,18.13,23.1,18.13s23.21,23.58,29.08,23.45c1.07,4.6,23,23,23,23s2.73,9-2.86,10.29l-16.3-12.44s-5.32-4.56-10-5.71c-5.6-2.31-27.76-14.61-27.76-14.61l-26.94-14.47s-18.67-.76-8.15,16.87c0,0,21.81,16.78,26.31,17.74,2.85,3.68,28.46,19.64,28.46,19.64s19.54,16.09,25.11,18-3.26,12-3.26,12l-22.49-8.17S150.5,265.05,128,261s-26.39-10-33.71-5.22-1,15.08,8.3,17.75,16.93,6.63,19.72,4.95c2,2.92,18.86,11.23,23.29,11.58,3.32,2.39,26.47,14.29,26.47,14.29s3.94,1.54,9.43,9.13,60.63,59.61,60.63,59.61,13.91,7,27.74,12.17c11,4.12,48.91,87.82,76.12,128.71a69.19,69.19,0,0,0,37.61,27.58c25.83,7.85,62.76,11.67,72.83-25.54C461.36,497.64,456.77,478.24,444.72,463Z"/><path class="cls-5" d="M187.85,138.23c-1.15,1-2.28,2.09-3.33,3.2s-2.1,2.21-3.05,3.36a15.14,15.14,0,0,0-1.29,1.83,15.13,15.13,0,0,1-1.33,1.72c-1,1.08-1.95,2.1-3.23,3.26l-.29-.09a6.29,6.29,0,0,1,.15-2.56,5.33,5.33,0,0,1,.38-1.21,9,9,0,0,1,.53-1.13,13.06,13.06,0,0,1,3.37-3.5,32.48,32.48,0,0,1,3.81-2.84,36,36,0,0,1,4.12-2.29Z"/><path class="cls-5" d="M215.23,160.36c-1.62,1.47-3.27,2.9-4.87,4.39s-3.22,2.94-4.79,4.42c-.77.76-1.53,1.53-2.26,2.33a26.72,26.72,0,0,1-2.33,2.19c-1.64,1.39-3.33,2.55-4.93,4.1l-.28-.1a7.25,7.25,0,0,1,1.11-3.36,16.93,16.93,0,0,1,2-2.78,28.52,28.52,0,0,1,5.15-4.22c1.76-1.32,3.58-2.56,5.42-3.77s3.7-2.36,5.61-3.45Z"/><path class="cls-5" d="M178.77,185.74c-.34,1.8-.81,3.55-1.26,5.32s-1,3.51-1.63,5.24a19.67,19.67,0,0,1-2.15,5.13,11.15,11.15,0,0,1-1.9,2.19,7,7,0,0,1-1.23.89,3.16,3.16,0,0,1-1.53.44l-.1-.28a9.94,9.94,0,0,0,1.16-2.3l1-2.4c.64-1.61,1.74-3,2.57-4.63s1.63-3.19,2.43-4.81,1.58-3.25,2.38-4.88Z"/><path class="cls-5" d="M148.36,164.14c-.88,1.41-1.78,2.81-2.61,4.24s-1.69,2.83-2.48,4.25-1.27,3-2.13,4.28L140,178.83a9.65,9.65,0,0,0-.49,1,2.06,2.06,0,0,0-.16,1.08l-.23.2a2.08,2.08,0,0,1-1-1.22,4.91,4.91,0,0,1-.19-1.5,8.66,8.66,0,0,1,.53-2.73,15.22,15.22,0,0,1,2.84-4.31c1-1.34,2.14-2.61,3.28-3.84s2.33-2.41,3.58-3.53Z"/><path class="cls-5" d="M163.48,227.05c-.86,1.54-1.75,3.06-2.56,4.62s-1.66,3.09-2.43,4.64c-.39.77-.71,1.58-1,2.38a18.32,18.32,0,0,1-1.1,2.27l-1.25,2.15a9.18,9.18,0,0,0-1,2.29l-.29.09a4.37,4.37,0,0,1-.72-2.92,10.38,10.38,0,0,1,.55-2.81,17.39,17.39,0,0,1,2.79-4.68c1-1.47,2.12-2.88,3.26-4.25s2.31-2.7,3.57-4Z"/><path class="cls-5" d="M133.39,210.22c-.49,1.48-1,2.94-1.46,4.42s-.93,2.94-1.37,4.4a31.66,31.66,0,0,1-1.15,4.36c-.54,1.39-1.2,2.6-1.8,4.15l-.29.07a4.9,4.9,0,0,1-.88-2.49,10.06,10.06,0,0,1,.07-2.52,15.54,15.54,0,0,1,1.81-4.44q1-2.13,2.24-4.15c.83-1.33,1.64-2.67,2.56-3.94Z"/><path class="cls-5" d="M126.48,265.3a26.65,26.65,0,0,0-1.46,3.12,27.84,27.84,0,0,0-1,3.16,26.47,26.47,0,0,1-.54,3.13,18.4,18.4,0,0,1-1.36,3.21l-.29.05a4.3,4.3,0,0,1-1-1.76,5.62,5.62,0,0,1-.3-1.94,7.74,7.74,0,0,1,1.26-3.55,18.11,18.11,0,0,1,2-3.06,17.87,17.87,0,0,1,2.52-2.55Z"/><path class="cls-5" d="M149.24,270.21c-.32,1.68-.67,3.34-.94,5s-.57,3.34-.81,5c-.12.83-.16,1.67-.2,2.5a16.16,16.16,0,0,1-.34,2.43c-.19.8-.35,1.58-.6,2.39-.08.39-.19.79-.32,1.21s-.18.82-.34,1.29l-.29.07a7,7,0,0,1-.73-1.24,14,14,0,0,1-.43-1.34,11.78,11.78,0,0,1-.27-2.7,17,17,0,0,1,1.18-5.13q.75-2.49,1.71-4.89c.66-1.59,1.32-3.18,2.1-4.71Z"/><path class="cls-5" d="M238.37,193c-1.45,1.68-3,3.24-4.59,4.81s-3.25,3-5,4.42a23.63,23.63,0,0,1-5.57,3.85,14.17,14.17,0,0,1-3.38,1,6.36,6.36,0,0,1-3.58-.32l0-.3a28.69,28.69,0,0,0,5.54-3c1.73-1.16,3.73-2,5.57-3.15s3.64-2.37,5.44-3.62,3.57-2.55,5.33-3.87Z"/><path class="cls-5" d="M221.81,237.31a175.33,175.33,0,0,1-2.09,23.07A77.42,77.42,0,0,1,217,271.73a34,34,0,0,1-2.3,5.49c-.25.44-.49.89-.78,1.31l-.42.65-.47.62-1.77,2.25a110.45,110.45,0,0,0-6.16,9.6c-1,1.64-1.95,3.3-2.91,5l-2.94,4.94c-4,6.57-7.91,13.18-12.17,19.64l-.27-.14a190,190,0,0,1,9.84-21,139.51,139.51,0,0,1,12.72-19.49l1.88-2.22.43-.51.39-.55a11.21,11.21,0,0,0,.73-1.15,32.07,32.07,0,0,0,2.37-5.06,78.25,78.25,0,0,0,3.08-11,174.33,174.33,0,0,0,3.26-22.8Z"/><path class="cls-5" d="M217.56,306.41q5.1-11.51,9.93-23.13c3.25-7.73,6.43-15.5,9.24-23.36.69-2,1.35-3.94,1.94-5.92.3-1,.55-2,.79-3a16.24,16.24,0,0,0,.44-2.81l0-.85a6.37,6.37,0,0,1,.13-.92,14.91,14.91,0,0,1,.42-1.72,23.29,23.29,0,0,1,1.28-3.11,44,44,0,0,1,3.33-5.56,98.56,98.56,0,0,1,8-9.9,112.93,112.93,0,0,1,9-8.9l.21.21c-5.07,6.7-10.27,13.29-14.72,20.24a57.46,57.46,0,0,0-3,5.29,23.39,23.39,0,0,0-1.18,2.69A11.3,11.3,0,0,0,243,247a3,3,0,0,0-.11.63l-.07.72a17.32,17.32,0,0,1-.68,3.37c-.3,1.05-.63,2.07-1,3.08-.69,2-1.44,4-2.22,5.95-3.13,7.84-6.59,15.5-10.12,23.13s-7.26,15.14-11,22.65Z"/><path class="cls-5" d="M243.68,329.89c0-6.86,0-13.71-.05-20.55s-.09-13.7-.24-20.54c-.09-3.42-.2-6.84-.37-10.25s-.26-6.82-.3-10.23-.11-6.82-.21-10.22c-.08-1.69-.13-3.39-.29-5.07l-.11-1.27-.17-1.25a9.31,9.31,0,0,0-.66-2.39l.24-.18a8.62,8.62,0,0,1,1.28,2.34l.43,1.25.34,1.26c.44,1.69.76,3.4,1,5.11.55,3.42.86,6.86,1.11,10.29.5,6.88.19,13.75.07,20.61s-.38,13.71-.66,20.56-.67,13.7-1.15,20.54Z"/><path class="cls-5" d="M301.74,175.83a61.8,61.8,0,0,0-6.94,1.92c-1.14.37-2.25.79-3.34,1.24a32,32,0,0,0-3.2,1.47,36.7,36.7,0,0,0-5.53,3.87,14.41,14.41,0,0,0-4.13,5.24l-.3,0c-.62-2.56.55-5.43,2.36-7.37s4.3-3,6.61-3.9a39,39,0,0,1,7.15-2,51.35,51.35,0,0,1,7.29-.76Z"/><path class="cls-5" d="M304.75,224.73a52,52,0,0,1-5.44,0,42.36,42.36,0,0,1-5.46-.66c-.9-.18-1.83-.33-2.76-.55a9.19,9.19,0,0,1-2.65-1.12,8.32,8.32,0,0,1-2.25-2,4.23,4.23,0,0,1-1-2.92l.28-.09a8,8,0,0,0,2.09,1.43c.72.35,1.45.65,2.21.94,1.53.53,3,1.44,4.66,2s3.34,1,5.07,1.5,3.47.83,5.23,1.19Z"/><path class="cls-5" d="M212.7,218.68a25.34,25.34,0,0,1-4.18,4.63,35.34,35.34,0,0,1-5,3.69,26.68,26.68,0,0,1-5.7,2.65,14.63,14.63,0,0,1-3.16.63,6.33,6.33,0,0,1-3.2-.47,10.45,10.45,0,0,0,2.84-1c.88-.42,1.74-.88,2.59-1.37,1.7-1,3.37-2,5.07-3s3.42-2.06,5.18-3A50.13,50.13,0,0,1,212.7,218.68Z"/><path class="cls-5" d="M189.36,239.05a34,34,0,0,1-.19,7,46.74,46.74,0,0,1-1.35,6.82,33.44,33.44,0,0,1-2.54,6.56,16.28,16.28,0,0,1-2,3,7.07,7.07,0,0,1-1.42,1.24,2.3,2.3,0,0,1-1.8.4,2.33,2.33,0,0,0,1.24-1,7.17,7.17,0,0,0,.74-1.43,28.63,28.63,0,0,0,1.07-3.12c.65-2.12,1.22-4.29,1.83-6.46s1.24-4.35,1.95-6.52A57,57,0,0,1,189.36,239.05Z"/><path class="cls-5" d="M177.17,277.4a45.15,45.15,0,0,0-2.91,6.16,62.14,62.14,0,0,0-2,6.29c-.52,2.14-1,4.31-1.35,6.52-.22,1.11-.35,2.23-.56,3.36s-.31,2.28-.59,3.46a27.25,27.25,0,0,1-.88-3.45,29.66,29.66,0,0,1-.33-3.54,27.12,27.12,0,0,1,.81-7.1,23.87,23.87,0,0,1,2.83-6.61A15,15,0,0,1,177.17,277.4Z"/><path class="cls-5" d="M338.12,297.16c-2.17,9.67-4,19.47-5.62,29.28s-2.94,19.68-3.86,29.58c-.48,5-.84,9.91-1.05,14.88s-.32,9.94-.17,14.91a125.23,125.23,0,0,0,1.2,14.86,58.71,58.71,0,0,0,3.86,14.38,58.84,58.84,0,0,1-4.23-14.32,128,128,0,0,1-1.58-14.89c-.28-5-.31-10-.21-15s.33-10,.68-15c.68-10,1.79-19.9,3.14-29.8s3-19.74,4.91-29.58Z"/><path class="cls-5" d="M272.69,386.74a124.16,124.16,0,0,1,10.54-9.13,107.65,107.65,0,0,1,11.45-7.83,66.38,66.38,0,0,1,12.55-5.87A33.46,33.46,0,0,1,320.84,362a33.16,33.16,0,0,0-13.35,2.59,65.14,65.14,0,0,0-12,6.44,107.48,107.48,0,0,0-10.83,8.3,122.92,122.92,0,0,0-9.77,9.44Z"/></g><circle class="cls-6" cx="256" cy="256" r="211.66"/></svg>