<svg id="Layer_1" data-name="Layer 1" xmlns="http://www.w3.org/2000/svg" xmlns:xlink="http://www.w3.org/1999/xlink" viewBox="0 0 512 512"><defs><style>.cls-1,.cls-2{fill:#ef4136;}.cls-1,.cls-4,.cls-6{stroke:#231f20;stroke-miterlimit:10;stroke-width:3px;}.cls-3{clip-path:url(#clip-path);}.cls-4{fill:#fff;}.cls-5{fill:#231f20;}.cls-6{fill:none;}</style><clipPath id="clip-path"><circle class="cls-1" cx="256" cy="256" r="211.66"/></clipPath></defs><title>Rock</title><circle class="cls-2" cx="256" cy="256" r="211.66"/><g class="cls-3"><path class="cls-4" d="M458.35,487.56c6.13-22.18-1-45.91-17.81-61.66-36.91-34.64-116.22-113.85-134.26-170.7-23.71-74.72-61.11-66.35-61.11-66.35l-72.83,11.57a7.45,7.45,0,0,0-4.59,2.59c-3.17,3.79-8.28,12.15-3.09,22.27,0,0-31.57,9.34-17.23,32.68,0,0-10.59,20.83,10,29.31,0,0-12.55,12.15,3.42,19.65,0,0,16.09,33,44.9,20.5l35.94,48.22s3.06,9.94,26.81,13.24c18,2.49,60.42,66.32,80,97.25a62.51,62.51,0,0,0,33.28,26C407.71,520.6,447.6,526.47,458.35,487.56Z"/><path class="cls-5" d="M257.07,216.41c-1.08,2.79-2.34,5.44-3.65,8.05s-2.66,5.19-4,7.74l-4.15,7.64a59.88,59.88,0,0,0-3.72,7.88,15.5,15.5,0,0,1,0-2.26c.09-.74.18-1.5.33-2.24l.54-2.19c.21-.72.46-1.42.69-2.13a57.05,57.05,0,0,1,3.66-8.12,72.63,72.63,0,0,1,4.68-7.52A51.14,51.14,0,0,1,257.07,216.41Z"/><path class="cls-5" d="M233,209.94a51.64,51.64,0,0,1-2.58,6.62c-1,2.12-2,4.2-3.12,6.24s-2.25,4-3.4,6c-.58,1-1.18,2-1.71,3a15.64,15.64,0,0,0-.77,1.53,5.71,5.71,0,0,0-.28.79,1.16,1.16,0,0,0,0,.82,1.22,1.22,0,0,1-.48-.82,5.15,5.15,0,0,1-.08-.95,11.37,11.37,0,0,1,.19-1.85,25.27,25.27,0,0,1,.95-3.49,45.07,45.07,0,0,1,2.91-6.49,56.11,56.11,0,0,1,3.73-6A38.16,38.16,0,0,1,233,209.94Z"/><path class="cls-5" d="M187,214a78.3,78.3,0,0,1,10.73,5,89.24,89.24,0,0,1,10,6.38,44.57,44.57,0,0,1,4.62,3.9,21.77,21.77,0,0,1,2.08,2.36,8.58,8.58,0,0,1,.89,1.46,4.14,4.14,0,0,1,.44,2,2.71,2.71,0,0,1-1.31,2.05l-.45.23-.35.14-.69.27c-.93.36-1.87.7-2.82,1s-1.92.56-2.9.76a9.19,9.19,0,0,1-3,.22,12,12,0,0,0,2.74-1c.87-.42,1.74-.85,2.59-1.33s1.7-.93,2.54-1.42l.63-.37.32-.17.19-.14c.22-.19.17-.25.17-.36a4.64,4.64,0,0,0-1.06-1.75,18.66,18.66,0,0,0-1.95-1.92c-1.41-1.24-2.93-2.42-4.47-3.57s-3.12-2.29-4.7-3.42L196.5,221C193.31,218.74,190.12,216.46,187,214Z"/><path class="cls-5" d="M242.77,249.88a49,49,0,0,0-13.45-11.57c-.61-.4-1.28-.7-1.92-1.05l-1-.53-1-.46-2-.93c-.7-.26-1.38-.53-2.07-.81l-1-.42-1.06-.35-2.14-.73c-1.44-.48-2.91-.81-4.39-1.36a34.47,34.47,0,0,1,4.66-.08,31.67,31.67,0,0,1,4.64.69c.77.18,1.54.37,2.3.57s1.49.54,2.23.81c.37.14.74.27,1.1.43l1.07.52c.7.37,1.44.69,2.11,1.11a28.87,28.87,0,0,1,7.3,6A21.34,21.34,0,0,1,242.77,249.88Z"/><path class="cls-5" d="M266.52,246.63A66.44,66.44,0,0,1,248,251.4a122.56,122.56,0,0,1-19.16.91c-1.6-.08-3.19-.2-4.79-.29-.8-.06-1.6-.08-2.4-.16l-2.39-.26c-1.59-.18-3.18-.33-4.77-.54l-4.75-.73L207.4,250l-2.36-.47-4.71-.94-4.64-.93c-1.55-.23-3.1-.49-4.65-.64a49.9,49.9,0,0,0-9.3-.16,28,28,0,0,0-8.86,2.07,20.83,20.83,0,0,0-7.26,5.12,22.39,22.39,0,0,0-4.43,7.75,29.73,29.73,0,0,0-1.58,8.93c0,1.45.09,3.08.13,4.67l.15,4.78.61,19.12v.19l-.05.25a7.36,7.36,0,0,0-.12,2.58,5.23,5.23,0,0,0,.84,2.32,6.49,6.49,0,0,0,4.4,2.51,21.26,21.26,0,0,0,5.92.1,44.61,44.61,0,0,0,6.08-1.09c2-.49,4.05-1.07,6-1.71a11.18,11.18,0,0,0,2.53-1.2,2.48,2.48,0,0,0,1.23-1.54,2.89,2.89,0,0,0-.74-1.93,12.43,12.43,0,0,0-2-2,31.09,31.09,0,0,0-5.11-3.24l1.39-2.19a24.46,24.46,0,0,0,5.84,3.36,16.22,16.22,0,0,0,6.49,1.3,11.32,11.32,0,0,0,6.12-2,17.18,17.18,0,0,0,4.55-4.89l4.1-6.43L205.66,291a14.88,14.88,0,0,0-.59,7.26,6.06,6.06,0,0,0,1.53,3,6.24,6.24,0,0,0,3,1.6,17.49,17.49,0,0,0,7.46-.26,53.8,53.8,0,0,0,7.45-2.21l.4,1.19a36.48,36.48,0,0,0-7.09,2.61,9.71,9.71,0,0,0-1.55,1,2.55,2.55,0,0,0-1,1.26c-.14.44.16.9.62,1.26a6.21,6.21,0,0,0,1.57.91,36.21,36.21,0,0,0,7.35,2c2.52.48,5.06.81,7.61,1.14-2.56-.21-5.12-.41-7.67-.77a35,35,0,0,1-7.56-1.72,7.13,7.13,0,0,1-1.78-1,3.08,3.08,0,0,1-.75-.81,5.71,5.71,0,0,1-.21-.58,2.56,2.56,0,0,1,0-.62,3.38,3.38,0,0,1,1.24-1.79,11.22,11.22,0,0,1,1.65-1.13,37.49,37.49,0,0,1,7.22-3l.4,1.19a53.07,53.07,0,0,1-7.58,2.53c-.65.15-1.31.3-2,.4a19.74,19.74,0,0,1-2,.25,13.94,13.94,0,0,1-4.16-.22,7.42,7.42,0,0,1-6-5.85,13.7,13.7,0,0,1-.28-4.22,19.65,19.65,0,0,1,.75-4.11l1.84.87a19.25,19.25,0,0,1-5,5.63,13.64,13.64,0,0,1-7.29,2.51,18.64,18.64,0,0,1-7.5-1.32,27.23,27.23,0,0,1-6.58-3.69l1.39-2.2a32.18,32.18,0,0,1,5.67,3.5,14.49,14.49,0,0,1,2.51,2.45,7,7,0,0,1,1,1.7A4.4,4.4,0,0,1,190,302a4.82,4.82,0,0,1-1.61,2.87,5.35,5.35,0,0,1-.76.61,13.4,13.4,0,0,1-3.17,1.58c-1.07.39-2.08.67-3.12,1s-2.07.6-3.13.84a47.6,47.6,0,0,1-6.45,1.18A23.77,23.77,0,0,1,165,310a12.41,12.41,0,0,1-3.43-1.16,8,8,0,0,1-2.87-2.57,8.24,8.24,0,0,1-1.34-3.6,10.45,10.45,0,0,1-.07-1.85,9.41,9.41,0,0,1,.26-1.89l0,.43L157,280.27l-.14-4.77c0-1.59-.13-3.14-.11-4.88a32.84,32.84,0,0,1,1.77-9.8,25.14,25.14,0,0,1,5.1-8.67,23.64,23.64,0,0,1,8.28-5.72,30.84,30.84,0,0,1,9.69-2.15,50.52,50.52,0,0,1,9.77.35c1.61.2,3.2.5,4.79.78l4.71,1.05,4.64,1,2.32.52,2.33.41,4.68.83c1.57.25,3.14.42,4.71.64l2.36.31c.78.09,1.57.14,2.36.21,1.58.13,3.16.28,4.74.39a121.63,121.63,0,0,0,19-.21,85.85,85.85,0,0,0,9.42-1.37A51.13,51.13,0,0,0,266.52,246.63Z"/><path class="cls-5" d="M164.66,225.28l3.33,6.09c1.1,2,2.22,3.9,3.47,5.7a30.78,30.78,0,0,0,4.16,5,20.5,20.5,0,0,0,2.55,2.06,25.2,25.2,0,0,0,3,1.69,10.35,10.35,0,0,1-3.61-.35,13.62,13.62,0,0,1-3.37-1.52,18.33,18.33,0,0,1-5.21-5.17,25.44,25.44,0,0,1-3.15-6.46A22.1,22.1,0,0,1,164.66,225.28Z"/><path class="cls-5" d="M147.43,258a17.21,17.21,0,0,1,3.12,1.93c.93.71,1.79,1.43,2.61,2.18l2.4,2.25a17.3,17.3,0,0,0,2.66,2.2,5.09,5.09,0,0,1-3.89-.19,10.63,10.63,0,0,1-3.18-2,13.31,13.31,0,0,1-2.35-2.83A9.89,9.89,0,0,1,147.43,258Z"/><path class="cls-5" d="M287.17,368.9a79.93,79.93,0,0,1-11.58,0,73.92,73.92,0,0,1-11.52-1.69A48,48,0,0,1,253,363.28a33.13,33.13,0,0,1-5.08-3.17,28.48,28.48,0,0,1-2.29-2l-2.08-2c-2.77-2.69-5.47-5.44-8.15-8.2s-5.33-5.57-8-8.38c-5.26-5.63-10.38-11.37-15.42-17.21l-.24-.27v-.28a40.13,40.13,0,0,1,0-4.52,32.21,32.21,0,0,1,.53-4.48,17.29,17.29,0,0,1,1.36-4.31,7,7,0,0,1,2.94-3.31,7.13,7.13,0,0,0-2.35,3.56,18.3,18.3,0,0,0-.8,4.22,36.82,36.82,0,0,0-.09,4.33,43,43,0,0,0,.37,4.29l-.25-.55q8.12,8.19,16.1,16.52l15.91,16.69,2,2.08c.66.63,1.32,1.26,2,1.84a32.5,32.5,0,0,0,4.59,3.12,51.49,51.49,0,0,0,10.45,4.22A96.7,96.7,0,0,0,287.17,368.9Z"/><path class="cls-5" d="M175,308.15a42.55,42.55,0,0,0,10,4.75,27.13,27.13,0,0,0,10.5,1.26,23.57,23.57,0,0,0,5.18-1,25.81,25.81,0,0,0,2.52-.86c.81-.39,1.66-.69,2.45-1.13a58.91,58.91,0,0,0,9.27-6.09,28.69,28.69,0,0,1-8.09,8.12,24.06,24.06,0,0,1-5.26,2.66,26,26,0,0,1-2.86.84,27.24,27.24,0,0,1-3,.43,24.67,24.67,0,0,1-5.95-.3,24.26,24.26,0,0,1-5.63-1.77A24.72,24.72,0,0,1,175,308.15Z"/></g><circle class="cls-6" cx="256" cy="256" r="211.66"/></svg>