<svg id="Layer_1" data-name="Layer 1" xmlns="http://www.w3.org/2000/svg" xmlns:xlink="http://www.w3.org/1999/xlink" viewBox="0 0 512 512"><defs><style>.cls-1,.cls-2{fill:#1b75bc;}.cls-1,.cls-4,.cls-6{stroke:#231f20;stroke-miterlimit:10;stroke-width:3px;}.cls-3{clip-path:url(#clip-path);}.cls-4{fill:#fff;}.cls-5{fill:#231f20;}.cls-6{fill:none;}</style><clipPath id="clip-path"><circle class="cls-1" cx="256" cy="256" r="211.66"/></clipPath></defs><title>Scissors</title><circle class="cls-2" cx="256" cy="256" r="211.66"/><g class="cls-3"><path class="cls-4" d="M434.48,429.1,331.4,307.5s-13.35-27.14-20.06-31.8-90.7-162.51-90.7-162.51-29.81-35.56-28.06,8.89c16.92,45.51,32.71,90.73,32.71,90.73s-1.29,6-8.56.28S147,148.5,147,148.5s-25.56-12.92-20.64,15.22c18.72,25,74,80.83,74,80.83s.94,6.18-3,5.51-17.42-3.51-17.42-3.51-14.64.73-13.43,15.46a28.55,28.55,0,0,0,11.85,21.32S157,282.16,165.18,303.1s36.36,25.79,36.36,25.79,20.31,17.27,38.06,34.84,36.1,28.75,45.15,28.56S330.22,451,330.22,451l25.88,37.46c27.49,46.72,99.6,20.79,90.62-32.67-.16-1-.34-1.95-.52-2.95A48.81,48.81,0,0,0,434.48,429.1Z"/><path class="cls-5" d="M200.17,139.27c1.1-1.24,2.29-2.37,3.5-3.5a43.6,43.6,0,0,1,3.88-3.14,13.61,13.61,0,0,1,4.43-2.58,8.07,8.07,0,0,1,2.71-.32,3.93,3.93,0,0,1,2.64,1l-.11.28a8.29,8.29,0,0,0-2.19.77l-2,1c-1.29.75-2.84,1.13-4.27,1.84s-2.83,1.49-4.23,2.3-2.8,1.66-4.19,2.51Z"/><path class="cls-5" d="M211.56,172.63c1.19-1.38,2.47-2.67,3.75-4s2.65-2.51,4.05-3.69a19.34,19.34,0,0,1,4.45-3.3,12.51,12.51,0,0,1,2.7-.94,14.62,14.62,0,0,1,1.46-.2,7.52,7.52,0,0,1,1.5.11l.06.3c-1.51,1.2-2.79,2.26-4.2,3.31a50.91,50.91,0,0,1-4.56,2.67q-2.27,1.41-4.51,2.9c-1.52,1-3,2-4.49,3Z"/><path class="cls-5" d="M226,213.81a56.92,56.92,0,0,1,4.87-3.72,49.47,49.47,0,0,1,5.3-3.17,18,18,0,0,1,5.88-2.33,11,11,0,0,1,3.29,0,6,6,0,0,1,3.08,1.29l-.1.29a24.5,24.5,0,0,0-5.61,1.36c-.9.28-1.81.56-2.75.79a24.47,24.47,0,0,0-2.83.81c-1.85.67-3.69,1.45-5.52,2.28s-3.64,1.72-5.44,2.65Z"/><path class="cls-5" d="M141.91,180.11a51.26,51.26,0,0,1,2.44-4.64,43.82,43.82,0,0,1,3-4.39c.55-.7,1.08-1.43,1.66-2.14a8.87,8.87,0,0,1,2.08-1.82,8.39,8.39,0,0,1,2.68-1.11,4.17,4.17,0,0,1,3,.28l0,.3a8.33,8.33,0,0,0-2.06,1.34c-.59.51-1.16,1-1.74,1.58-1.1,1.13-2.54,2-3.76,3.17s-2.39,2.41-3.54,3.68-2.28,2.58-3.4,3.91Z"/><path class="cls-5" d="M168.43,209.23c.64-1.79,1.41-3.53,2.16-5.28s1.64-3.44,2.57-5.12a19.76,19.76,0,0,1,3.16-4.89,11.22,11.22,0,0,1,2.4-1.88,6.81,6.81,0,0,1,1.49-.63,3,3,0,0,1,1.66,0v.3a7.23,7.23,0,0,0-1.77,1.94l-1.49,2.21c-1,1.51-2.33,2.79-3.44,4.28s-2.2,3-3.28,4.55-2.14,3.11-3.2,4.67Z"/><path class="cls-5" d="M194,238.14c1-1.89,2.05-3.74,3.09-5.6s2.16-3.69,3.29-5.5a34.2,34.2,0,0,1,3.51-5.37l1.11-1.18c.41-.38.79-.77,1.21-1.11a8.33,8.33,0,0,1,2.93-1.8l.13.27a61.41,61.41,0,0,1-3,5.61,44.6,44.6,0,0,1-4,5l-4,5c-1.37,1.63-2.7,3.29-4.09,4.92Z"/><path class="cls-5" d="M200.34,243.7c1.81-1.59,3.56-3.24,5.21-5a69.71,69.71,0,0,0,4.69-5.38,31.08,31.08,0,0,0,2-2.91c.3-.5.62-1,.94-1.46s.62-1,1-1.43c1.31-1.91,2.5-3.8,3.77-6l.29,0a13.34,13.34,0,0,1-1.46,7.44c-1.08,2.34-3,4.09-4.66,5.88a51.05,51.05,0,0,1-5.5,4.91,58.49,58.49,0,0,1-6,4.12Z"/><path class="cls-5" d="M306.82,272.92c-3.82-2.52-7.63-5-11.4-7.6l-11.36-7.66.16.1s-.2-.07-.32-.1l-.44-.13c-.3-.09-.62-.16-.93-.23-.63-.14-1.27-.27-1.93-.38l-3.94-.69c-2.65-.46-5.34-.74-8-1-5.38-.53-10.81-.86-16.23-1.08s-10.92-.45-16.38-.79c-2.73-.16-5.46-.35-8.2-.59-1.36-.12-2.73-.25-4.11-.42-.69-.08-1.38-.16-2.08-.27l-1-.18-.55-.11a6.8,6.8,0,0,1-.73-.2l.55.11a14,14,0,0,0-2.49.36,19.4,19.4,0,0,0-2.53.78,20.84,20.84,0,0,0-4.65,2.55,22.58,22.58,0,0,0-3.91,3.66,21.8,21.8,0,0,0-1.63,2.16l-1.58,2.37a38.72,38.72,0,0,1-8.07,8.68,40.15,40.15,0,0,1-10.27,6l.65-.46a23.45,23.45,0,0,0-2.48,3.92,15.24,15.24,0,0,0-1.48,4.28,7.57,7.57,0,0,0,.32,4.11,7.39,7.39,0,0,0,2.58,3.16l-.15-.1,5.94,3.28-.19-.09a47.8,47.8,0,0,0,9,2.24,23.32,23.32,0,0,0,9-.23,9.58,9.58,0,0,0,3.69-1.85A8.07,8.07,0,0,0,213,295l.62-.92c.19-.31.33-.63.5-.94.62-1.25.94-2.57.53-3.4a2.4,2.4,0,0,0-1-1.13,5.23,5.23,0,0,0-1.65-.69l.59-2.94q6.54,1.51,13.12,2.89c2.19.48,4.39.89,6.59,1.32s4.35,1,6.54,1.54c4.36,1,8.73,2,13.13,2.8,2.2.41,4.41.76,6.63,1.07,1.11.15,2.22.27,3.33.34a13.34,13.34,0,0,0,3.34-.11,13.87,13.87,0,0,1-3.34.47c-1.13,0-2.26,0-3.39,0-2.26-.06-4.51-.26-6.75-.46-4.49-.44-9-1-13.42-1.64-2.23-.33-4.46-.61-6.68-1l-6.6-1.39q-6.6-1.38-13.18-2.89l.6-2.94a8,8,0,0,1,2.79,1.13,5.45,5.45,0,0,1,2.1,2.47l.17.4.09.41a4.72,4.72,0,0,1,.15.82,6.16,6.16,0,0,1-.09,1.56,6.87,6.87,0,0,1-.37,1.42,8.08,8.08,0,0,1-.54,1.27c-.21.4-.41.81-.64,1.19l-.72,1.08a11.16,11.16,0,0,1-1.83,2.09,12.56,12.56,0,0,1-4.86,2.48,26.25,26.25,0,0,1-10.2.3,50.19,50.19,0,0,1-9.68-2.4l-.09,0-.11-.05-5.94-3.28-.08-.05-.07-.05a10.37,10.37,0,0,1-3.62-4.49,10.69,10.69,0,0,1-.49-5.71,18.23,18.23,0,0,1,1.75-5.12,25.84,25.84,0,0,1,2.87-4.49l.23-.3.42-.16a33.17,33.17,0,0,0,4.86-2.4,40.62,40.62,0,0,0,4.54-3.13,35.41,35.41,0,0,0,7.45-8l1.6-2.39a26.25,26.25,0,0,1,6.24-6.54,23.19,23.19,0,0,1,5.35-2.93,21.11,21.11,0,0,1,2.93-.9,16.16,16.16,0,0,1,3.17-.44l.55.11c-.09,0,.16,0,.26.05l.46.09,1,.16c.64.1,1.31.18,2,.26,1.34.16,2.68.29,4,.41,2.7.23,5.4.43,8.12.59,5.43.33,10.86.56,16.31.79s10.94.54,16.41,1.08c2.74.26,5.46.62,8.21,1a36.62,36.62,0,0,1,4.1.8c.68.17,1.36.38,2,.59.34.12.68.22,1,.36l.53.21c.19.08.33.14.62.29l.09.05.07,0,10.62,8.64C299.79,267.08,303.3,270,306.82,272.92Z"/><path class="cls-5" d="M237.8,291.8a18.79,18.79,0,0,1,4.7,3.78c1.41,1.45,2.69,3,3.95,4.58,2.16,3.36,4.07,6.85,5.94,10.34,3.72,7,7.13,14.14,10.4,21.34l2.4,5.38a42.59,42.59,0,0,0,2.82,4.95,32.49,32.49,0,0,0,7.63,8.25,18,18,0,0,0,10.12,3.69,24,24,0,0,0,11.29-1.26,21.8,21.8,0,0,1-11.42,4.32,21.71,21.71,0,0,1-6.23-1.31,23.17,23.17,0,0,1-5.53-3,35.42,35.42,0,0,1-8.36-9,45.77,45.77,0,0,1-3-5.33l-2.42-5.42c-3.25-7.15-6.65-14.25-10.32-21.17-1.83-3.46-3.77-6.87-5.8-10.18-.84-1.77-1.75-3.49-2.72-5.19-.48-.84-1-1.67-1.55-2.47A13.52,13.52,0,0,0,237.8,291.8Z"/><path class="cls-5" d="M250.39,233.17c-.16,1.66-.4,3.29-.59,4.94s-.47,3.28-.74,4.91a23.58,23.58,0,0,1-.89,4.88,16.53,16.53,0,0,1-1,2.29,11,11,0,0,1-1.47,2.19l-.29-.07a11.49,11.49,0,0,1-.29-2.62,17.35,17.35,0,0,1,.16-2.51,23.54,23.54,0,0,1,1.47-4.73c.51-1.57,1.05-3.14,1.61-4.69s1.14-3.12,1.76-4.66Z"/><path class="cls-5" d="M225.27,233.6c.64,1.42,1.2,2.86,1.8,4.29s1.14,2.88,1.67,4.33a20.3,20.3,0,0,1,1.51,4.36,15.18,15.18,0,0,1,.19,2.34,10.18,10.18,0,0,1-.26,2.47l-.29.08a10.37,10.37,0,0,1-1.49-2,15.28,15.28,0,0,1-1-2.11,20.87,20.87,0,0,1-.94-4.52c-.29-1.52-.55-3-.79-4.57s-.47-3.06-.65-4.61Z"/><path class="cls-5" d="M271.86,238.38a18.84,18.84,0,0,1-2.51,5.54,22.79,22.79,0,0,1-4,4.68c-1.57,1.33-3.16,2.85-5.18,3.48a12.93,12.93,0,0,1-6.2.76l-.07-.3a19.63,19.63,0,0,1,2.54-1.69c.81-.57,1.67-1,2.46-1.48.41-.24.82-.47,1.24-.67s.82-.44,1.25-.64a10.58,10.58,0,0,0,1.26-.63c.41-.23.83-.45,1.22-.72l1.16-.83c.37-.29.73-.6,1.1-.9a24.25,24.25,0,0,0,2.08-2,20.64,20.64,0,0,0,3.4-4.71Z"/><path class="cls-5" d="M281.63,252a13.27,13.27,0,0,0-4.69-1.17c-1.62-.17-3.25-.22-4.88-.24a35.06,35.06,0,0,1-4.91.13,19.57,19.57,0,0,1-2.47-.41,11.47,11.47,0,0,1-2.52-.8l0-.3a13.13,13.13,0,0,1,5-1.49,11,11,0,0,1,2.56.05l2.54.43a33.49,33.49,0,0,1,5,1.16,23.61,23.61,0,0,1,2.4,1,7.47,7.47,0,0,1,2.17,1.46Z"/><path class="cls-5" d="M204.45,300.39c2.09,1.25,4.18,2.5,6.25,3.79s4.13,2.58,6.19,3.87a69.1,69.1,0,0,1,5.91,4.25l5.82,4.38-.36-.21a37.23,37.23,0,0,0,6.53,1.68,23.37,23.37,0,0,0,6.61.2A9.84,9.84,0,0,0,247,316a9.21,9.21,0,0,0,2.56-5.39l.23,1.05-8.82-13.38.67.56c-3.22-1.23-7.11-1.82-10.23-.76a8.71,8.71,0,0,0-5.74,7.28,6.1,6.1,0,0,0,.23,2.3,6.47,6.47,0,0,0,1.13,2.08,11.53,11.53,0,0,0,3.78,3.39,10.86,10.86,0,0,0,4.86,1.32,17.19,17.19,0,0,0,2.58-.16,13.49,13.49,0,0,0,2.54-.39l-.21.11a13.19,13.19,0,0,0,2.57-1.88,10.29,10.29,0,0,0,2-2.51,6.57,6.57,0,0,0,.83-3.11,7.53,7.53,0,0,0-.8-3.3,7.83,7.83,0,0,1,1.51,3.23,7.34,7.34,0,0,1-.28,3.71,11.1,11.1,0,0,1-1.78,3.3,14.91,14.91,0,0,1-2.67,2.72l0,0-.16.08a16.26,16.26,0,0,1-3.05,1,14.6,14.6,0,0,1-3.17.16,14.09,14.09,0,0,1-6.18-1.69,14.79,14.79,0,0,1-4.75-4.24,9.5,9.5,0,0,1-1.57-3,9,9,0,0,1-.36-3.41,11.73,11.73,0,0,1,7.76-9.89,15,15,0,0,1,6.33-.62,22.55,22.55,0,0,1,6,1.45l.4.16.27.4L252.24,310l.32.48-.09.57a12.14,12.14,0,0,1-3.46,7.12,12.74,12.74,0,0,1-7.21,3.16,26.31,26.31,0,0,1-7.48-.21,39.93,39.93,0,0,1-7.13-1.83l-.19-.07-.18-.14L221,314.7a65,65,0,0,1-5.73-4.49c-1.81-1.62-3.65-3.22-5.44-4.87S206.23,302.05,204.45,300.39Z"/><path class="cls-5" d="M192.27,272.41a23,23,0,0,1,1.68,3.32c.17,1.19.35,2.37.47,3.57a42.8,42.8,0,0,1,.2,7.26,14.85,14.85,0,0,1-2.1,7.23,6.49,6.49,0,0,1-3.23,2.52,6.64,6.64,0,0,1-3.83-.72,7.65,7.65,0,0,0,3.17-1.17,4.45,4.45,0,0,0,2.24-1.77,12.87,12.87,0,0,0,1.75-6.24,38.93,38.93,0,0,0-.19-6.9c-.13-1.15-.27-2.31-.48-3.45C192.06,274.86,192.13,273.66,192.27,272.41Z"/><path class="cls-6" d="M202.54,329.74s25.9,7.25,27.13-10.8"/><path class="cls-5" d="M219.39,311.61a44.14,44.14,0,0,0-6,1.87,13.41,13.41,0,0,0-5.32,1.9,5.16,5.16,0,0,0-2.43,4.12,6.07,6.07,0,0,0,.32,2.47,4.92,4.92,0,0,0,1.42,2,10.68,10.68,0,0,0,5,2.18,21,21,0,0,0,5.88.22,19.29,19.29,0,0,0,5.68-1.38,10.7,10.7,0,0,0,2.81-.84,5.76,5.76,0,0,0,2.38-1.87,5.67,5.67,0,0,1-1.37,3.12,12.06,12.06,0,0,1-2.64,2.35,22.74,22.74,0,0,1-6.57,1.61,24.16,24.16,0,0,1-6.73-.27,13.56,13.56,0,0,1-6.44-2.86,8.12,8.12,0,0,1-2.23-3.13,9,9,0,0,1-.53-3.76,8.14,8.14,0,0,1,1.12-3.67,8.74,8.74,0,0,1,2.62-2.72,16.79,16.79,0,0,1,6.49-2.41A22.13,22.13,0,0,1,219.39,311.61Z"/></g><circle class="cls-6" cx="256" cy="256" r="211.66"/></svg>